<svg width="111" height="61" viewBox="0 0 111 61" fill="none" xmlns="http://www.w3.org/2000/svg">
<mask id="mask0_16421_586" style="mask-type:luminance" maskUnits="userSpaceOnUse" x="0" y="0" width="111" height="61">
<path d="M111 0H0.839844V60.17H111V0Z" fill="white"/>
</mask>
<g mask="url(#mask0_16421_586)">
<path d="M70 -1V21.7424L45.785 54.8318L45.7739 54.8424L42 60V37.2471L70 -1Z" fill="url(#paint0_linear_16421_586)"/>
<path d="M111 -2V60H86V35.3132L111 -2Z" fill="url(#paint1_linear_16421_586)"/>
<path d="M70 0L66.6946 2.87185L66.6846 2.88183C66.6511 2.90444 66.6207 2.93125 66.5942 2.96161H66.5841L3.07867 58.1951H3.06963C3.03949 58.224 3.0194 58.244 3.00935 58.244V58.2549C2.99513 58.2638 2.98169 58.2738 2.96916 58.2849L1 60L6.06356 52.8503C6.08365 52.8104 6.11379 52.7805 6.13389 52.7406L43.4374 0H70Z" fill="url(#paint2_linear_16421_586)"/>
<path d="M70 0L69.3068 0.96726L43.8889 36.9054L27.5632 60H1L3.0696 58.1951H3.07964L66.5842 2.96161L69.3068 0.598296L70 0Z" fill="url(#paint3_linear_16421_586)"/>
<path d="M111 0L110.538 0.398857L106.439 3.96969L106.429 3.97966L106.389 4.00857C106.379 4.02951 106.368 4.02951 106.358 4.03948C106.348 4.04946 106.348 4.04945 106.338 4.04945V4.05943L106.258 4.11926C106.223 4.14243 106.189 4.16917 106.158 4.19903L85.1202 22.4969L68.6337 36.836L45.3857 57.0384L45.3053 57.1182C45.2776 57.1473 45.2474 57.1741 45.2149 57.198L43.2156 58.933L42 60L43.2156 58.2849L46.6416 53.4387L46.6516 53.4287L68.6337 22.3363L84.4371 0H111Z" fill="url(#paint4_linear_16421_586)"/>
<path d="M111 0L110.538 0.638191L85.1207 36.5764L68.6343 59.8903L68.564 60H42L43.2156 58.933L45.3857 57.0384L68.6333 36.8356L85.1197 22.4963L106.157 4.1981L106.257 4.11832L106.267 4.10836L106.337 4.05849V4.04853C106.347 4.04853 106.347 4.03856 106.358 4.03856L110.537 0.397875L111 0Z" fill="url(#paint5_linear_16421_586)"/>
<g style="mix-blend-mode:multiply" opacity="0.24">
<path d="M70 0V20.4946L42 41V38.773L70 0Z" fill="black"/>
</g>
<g style="mix-blend-mode:multiply" opacity="0.24">
<path d="M111 0V18.3877L110.852 18.4951L86 37V35.1935L111 0Z" fill="black"/>
</g>
<g style="mix-blend-mode:overlay">
<path d="M67.8714 1.85154L3.13867 58.1439C3.12844 58.1541 3.12839 58.144 3.12839 58.144C3.41498 57.8596 4.31586 57.0063 5.70816 55.6958C7.43846 54.1007 9.87485 51.7745 12.8648 49.0717C15.8546 46.3689 19.3255 43.1787 23.0938 39.8354C26.8621 36.471 30.9072 32.9354 34.9625 29.3886C36.9902 27.6304 39.0282 25.8722 41.0355 24.1434C43.0428 22.4146 45.0297 20.7293 46.9449 19.0929C50.7855 15.8201 54.4321 12.8404 57.5253 10.2392C60.6185 7.63801 63.2616 5.56258 65.0849 4.06713L67.8714 1.85154Z" fill="white" fill-opacity="0.8"/>
</g>
<g style="mix-blend-mode:overlay">
<path d="M103.83 6.05855C104.977 5.15245 105.787 4.51342 106.183 4.20923L85.9778 21.7253L70.1443 35.4517L47.8173 54.7908C48.1359 54.4851 48.9275 53.74 50.0861 52.6406C51.6498 51.1994 53.8511 49.0978 56.563 46.6534C59.275 44.209 62.4024 41.3345 65.8185 38.308C69.2346 35.2815 72.8916 32.0836 76.5487 28.8856C78.3916 27.2906 80.2344 25.7071 82.0482 24.1513C83.8621 22.5955 85.6661 21.0686 87.4026 19.5988C90.8757 16.6498 94.1839 13.9594 96.9814 11.6215C99.7789 9.28352 102.18 7.40473 103.83 6.05855Z" fill="white" fill-opacity="0.8"/>
</g>
<g style="mix-blend-mode:screen" opacity="0.4">
<path d="M106.38 4.05005C106.38 4.06005 106.37 4.06004 106.36 4.07004L106.28 4.13004C106.305 4.10393 106.331 4.08047 106.36 4.06004C106.37 4.06004 106.37 4.05005 106.38 4.05005Z" fill="white"/>
</g>
<g style="mix-blend-mode:multiply" opacity="0.25">
<path d="M70 0C69.7689 0.358983 69.5379 0.707992 69.3068 1.05701C67.8601 3.26974 66.3933 5.46452 64.9365 7.66827C63.2487 10.221 61.1592 12.4248 59.4311 14.9576C55.9952 20.022 52.3985 24.9294 48.8822 29.9152L43.8889 36.9054L27.5632 60H1C5.4205 59.8105 9.85105 59.7298 14.2816 59.5912L27.2116 59.3718C28.8793 56.9287 30.5772 54.5046 32.255 52.0725L37.5194 44.5538L42.824 37.044L48.1587 29.5652C51.7252 24.5893 55.332 19.6367 58.9789 14.7073C60.7873 12.2433 62.5957 9.77131 64.4442 7.32824C66.2928 4.88516 68.1213 2.42613 70 0Z" fill="black"/>
</g>
<g style="mix-blend-mode:multiply" opacity="0.25">
<path d="M110.999 0.100506C110.847 0.339293 110.696 0.578071 110.534 0.806749C109.018 3.13456 107.546 4.69251 106 7C104.312 9.54638 102.727 11.474 101 14C97.5456 19.0506 93.5208 24.4875 90 29.5L87.5 33L85.5 36L84.5 37.5L68.425 59.8117L68.3542 59.9211L42.0297 59.6627C46.4221 59.5156 50.8036 59.4775 55.1955 59.3814L68.0209 59.2871C69.6877 56.8507 71.3942 54.4336 73.0808 52.0084L78.3818 44.5117L83.7026 37.0243L89.0629 29.5683C92.6463 24.6077 96.2693 19.6709 99.9319 14.7578C101.748 12.3018 103.564 9.8378 105.43 7.40329C107.276 4.95959 109.112 2.51778 110.999 0.100506Z" fill="black"/>
</g>
<g style="mix-blend-mode:multiply" opacity="0.25">
<path d="M111 17V60H85C87.1684 59.8706 89.3368 59.7909 91.5052 59.7013C93.6737 59.6117 95.8318 59.552 98.0002 59.4823C102.08 59.3728 106.149 59.313 110.229 59.2632C110.198 55.927 110.178 52.5927 110.188 49.2475C110.198 45.6633 110.219 42.0792 110.281 38.495C110.342 34.9109 110.404 31.3357 110.527 27.7525C110.568 25.9604 110.651 24.1683 110.733 22.3762C110.764 21.4802 110.805 20.5951 110.846 19.6991C110.887 18.803 110.938 17.895 111 17Z" fill="black"/>
</g>
<g style="mix-blend-mode:overlay">
<path d="M104.024 0.0226292C100.768 0.18598 97.5111 0.257347 94.2648 0.379946C91.1128 0.481724 87.9714 0.520809 84.8299 0.591241C83.2886 2.87878 81.7577 5.16631 80.1851 7.42246L75.3097 14.4625L70.3925 21.4712L65.4439 28.4589L60.4325 35.4048L55.3688 42.2984C53.6704 44.5962 51.993 46.9035 50.2632 49.171C48.5334 51.4385 46.8351 53.7249 45.0739 55.9704L68.0138 23.4016L84.5057 0.00462748L104.024 0.0226292Z" fill="white" fill-opacity="0.8"/>
</g>
<g style="mix-blend-mode:overlay">
<path d="M65.9657 0.0118522C62.2286 0.190397 58.4917 0.268936 54.7648 0.407486L43.9084 0.624267C42.4391 2.77269 40.9394 4.9021 39.46 7.05252L34.7888 13.6997L30.0771 20.3289L25.335 26.927L20.5524 33.4952L15.709 40.0223C14.0878 42.2027 12.4869 44.382 10.8252 46.5314C9.18375 48.6898 7.5423 50.8501 5.87048 52.9895C5.89075 52.9495 5.92114 52.9195 5.94141 52.8795L43.5643 0.00412285L65.9657 0.0118522Z" fill="white" fill-opacity="0.8"/>
</g>
</g>
<defs>
<linearGradient id="paint0_linear_16421_586" x1="56" y1="51.2159" x2="56" y2="17.544" gradientUnits="userSpaceOnUse">
<stop stop-color="#7E04F8"/>
<stop offset="1" stop-color="#7F00AB"/>
</linearGradient>
<linearGradient id="paint1_linear_16421_586" x1="98.5002" y1="59.4421" x2="98.5002" y2="15.918" gradientUnits="userSpaceOnUse">
<stop stop-color="#7E02DB"/>
<stop offset="0.017" stop-color="#7E04F8"/>
<stop offset="0.19" stop-color="#7E02DA"/>
<stop offset="0.371" stop-color="#7E01CB"/>
<stop offset="0.56" stop-color="#7E02C9"/>
<stop offset="0.762" stop-color="#6B00B3"/>
<stop offset="1" stop-color="#59039D"/>
</linearGradient>
<linearGradient id="paint2_linear_16421_586" x1="41.8492" y1="29.9152" x2="35.5905" y2="60.0188" gradientUnits="userSpaceOnUse">
<stop stop-color="#7E04F8"/>
<stop offset="1" stop-color="#4A0292"/>
</linearGradient>
<linearGradient id="paint3_linear_16421_586" x1="35.5" y1="0" x2="35.5" y2="60" gradientUnits="userSpaceOnUse">
<stop stop-color="#8C3DDC"/>
<stop offset="1" stop-color="#6107BC"/>
</linearGradient>
<linearGradient id="paint4_linear_16421_586" x1="41.6772" y1="72.294" x2="81.9524" y2="13.1797" gradientUnits="userSpaceOnUse">
<stop stop-color="#7F00AB"/>
<stop offset="0.516513" stop-color="#7F02CD"/>
<stop offset="1" stop-color="#7E04F8"/>
</linearGradient>
<linearGradient id="paint5_linear_16421_586" x1="42" y1="30" x2="111" y2="30" gradientUnits="userSpaceOnUse">
<stop stop-color="#5C00B8"/>
<stop offset="1" stop-color="#994CE5"/>
</linearGradient>
</defs>
</svg>
